<?xml version="1.0" encoding="UTF-8"?><svg id="Layer_2" xmlns="http://www.w3.org/2000/svg" viewBox="0 0 349.71 38.79"><defs><style>.cls-1{fill:#292a2b;}</style></defs><g id="Layer_1-2"><g><path class="cls-1" d="M15,14.44c3.47,.26,6.05,1.12,7.74,2.59,1.68,1.47,2.53,3.32,2.53,5.53,0,1.93-.57,3.58-1.71,4.98-1.14,1.39-2.61,2.3-4.39,2.73s-4.17,.64-7.16,.64H0v-1.04H1.17c1.31,0,2.21-.17,2.72-.5,.51-.33,.83-.85,.96-1.55s.2-2.33,.2-4.88V8.06c0-2.48-.07-4.08-.22-4.81-.14-.72-.44-1.22-.9-1.49-.46-.27-1.46-.41-3.01-.41H.34V.32L5.37,.18l5.73-.18c8.36,0,12.55,2.41,12.55,7.22,0,1.99-.72,3.58-2.16,4.78-1.43,1.2-3.6,2.02-6.49,2.44Zm-5.53-.43c.37,.01,.69,.02,.95,.02,3.25,0,5.47-.51,6.66-1.53,1.19-1.02,1.78-2.68,1.78-4.96,0-1.59-.24-2.83-.7-3.7-.47-.87-1.17-1.55-2.1-2.02-.93-.47-2.53-.71-4.78-.71-.59,0-1.19,.02-1.81,.07V14.01Zm0,1.11v6.81c0,2.9,.05,4.75,.16,5.53,.1,.78,.39,1.38,.84,1.78,.46,.41,1.37,.61,2.72,.61,2.4,0,4.21-.62,5.42-1.85,1.2-1.23,1.81-3.08,1.81-5.55s-.68-4.39-2.04-5.58c-1.36-1.2-3.76-1.79-7.18-1.79-.54,0-1.12,.01-1.71,.05Z"/><path class="cls-1" d="M29.95,18.14c0-3.65,1.22-6.57,3.66-8.78,2.44-2.21,5.48-3.31,9.12-3.31s6.76,1.09,9.22,3.28c2.47,2.18,3.7,5.16,3.7,8.93s-1.18,6.62-3.54,8.88c-2.36,2.26-5.47,3.4-9.33,3.4s-6.83-1.13-9.23-3.4c-2.4-2.26-3.6-5.27-3.6-9.01Zm3.99,.12c0,3.8,.76,6.65,2.27,8.55,1.52,1.9,3.79,2.86,6.82,2.86,2.66,0,4.76-.95,6.3-2.86,1.55-1.91,2.32-4.74,2.32-8.52s-.76-6.48-2.28-8.44c-1.52-1.96-3.73-2.94-6.62-2.94s-5.02,.96-6.54,2.86c-1.51,1.91-2.27,4.73-2.27,8.47Z"/><path class="cls-1" d="M76.17,6.49h7.89v.8c-1.04,.07-1.82,.31-2.34,.71-.52,.4-.83,.85-.95,1.35-.12,.5-.17,1.47-.17,2.91v7.86c0,2.01-.08,3.5-.23,4.48-.16,.98-.61,1.93-1.36,2.87-.75,.94-1.8,1.69-3.16,2.25-1.36,.56-2.93,.84-4.7,.84-2.1,0-3.88-.36-5.34-1.07s-2.5-1.64-3.12-2.77c-.62-1.13-.93-2.65-.93-4.55l.02-2.42v-7.35c0-1.88-.05-3.09-.16-3.64-.11-.55-.34-.92-.7-1.13-.36-.21-1.13-.31-2.32-.31h-.54v-.8h10.78v.8h-.47c-1.16,0-1.92,.1-2.28,.29-.36,.19-.6,.55-.73,1.07-.12,.52-.18,1.77-.18,3.73v7.44c0,2.58,.12,4.41,.36,5.49,.24,1.08,.91,2.02,2.01,2.83s2.57,1.21,4.41,1.21c1.44,0,2.75-.27,3.93-.81,1.18-.54,2.05-1.21,2.63-2.02,.57-.81,.92-1.64,1.05-2.49s.19-2.2,.19-4.03V11.94c0-1.34-.07-2.27-.23-2.8-.15-.53-.48-.96-.97-1.27-.5-.31-1.29-.5-2.37-.57v-.8Z"/><path class="cls-1" d="M88.71,12.16h-.8l.12-5.68h22.92l.12,5.68h-.75c-.27-1.56-.63-2.68-1.09-3.37-.47-.69-.97-1.12-1.5-1.27s-1.44-.23-2.73-.23h-3.8V23.96c0,1.84,.04,3.06,.13,3.64,.09,.58,.32,1.01,.71,1.29s1.1,.42,2.16,.42h1.15v.8h-11.77v-.8h1.22c1.01,0,1.71-.13,2.1-.38,.39-.26,.64-.65,.75-1.19s.16-1.8,.16-3.77V7.29h-3.5c-1.52,0-2.54,.07-3.06,.22-.52,.15-1.01,.58-1.47,1.32-.46,.73-.81,1.85-1.06,3.34Z"/><path class="cls-1" d="M114.99,7.29v-.8h10.8v.8h-.5c-1.16,0-1.92,.1-2.28,.29s-.6,.55-.72,1.07c-.12,.52-.18,1.77-.18,3.73v11.58c0,1.86,.04,3.07,.13,3.65,.09,.57,.32,1,.7,1.28s1.1,.42,2.17,.42h.7v.8h-10.8v-.8h.7c1.01,0,1.71-.13,2.1-.38,.39-.26,.64-.65,.74-1.19,.1-.54,.16-1.8,.16-3.77V12.37c0-1.88-.05-3.09-.16-3.64-.11-.55-.34-.92-.7-1.13-.36-.21-1.14-.31-2.34-.31h-.5Z"/><path class="cls-1" d="M145.34,30.45c-.54,.06-1.13,.09-1.76,.09-3.8,0-6.89-1.13-9.29-3.39-2.4-2.26-3.6-5.26-3.6-9.01s1.22-6.56,3.65-8.77c2.43-2.21,5.48-3.32,9.13-3.32,2.25,0,4.43,.49,6.53,1.47,2.1,.98,3.69,2.43,4.77,4.35,1.08,1.92,1.62,4.05,1.62,6.38,0,2.72-.71,5.12-2.12,7.21-1.41,2.09-3.45,3.55-6.12,4.39l-5.21,2.87c.36-.04,.67-.05,.94-.05,2.58,0,5.54,.58,8.9,1.74,2.58,.89,4.62,1.34,6.13,1.34,2.09,0,3.33-.79,3.73-2.37h.73c-.2,1.6-.87,2.9-2,3.9s-2.61,1.5-4.41,1.5c-1.18,0-2.26-.19-3.23-.57-.97-.38-2.23-1.07-3.79-2.06-2.79-1.78-5.11-2.66-6.97-2.66-1.12,0-2.2,.44-3.24,1.32-.7,.58-1.18,.87-1.44,.87-.42,0-.63-.19-.63-.58,0-.29,.25-.59,.75-.9,.5-.31,1.44-.8,2.82-1.47,.29-.14,.58-.29,.87-.45l3.22-1.85Zm-10.66-12.19c0,3.8,.76,6.65,2.27,8.55,1.51,1.9,3.79,2.86,6.82,2.86,2.66,0,4.76-.95,6.31-2.86,1.54-1.91,2.32-4.74,2.32-8.52s-.76-6.48-2.28-8.44c-1.52-1.96-3.73-2.94-6.62-2.94s-5.03,.96-6.54,2.86c-1.51,1.91-2.27,4.73-2.27,8.47Z"/><path class="cls-1" d="M177.91,6.49h7.89v.8c-1.04,.07-1.82,.31-2.34,.71-.52,.4-.83,.85-.95,1.35-.12,.5-.17,1.47-.17,2.91v7.86c0,2.01-.08,3.5-.23,4.48-.16,.98-.61,1.93-1.36,2.87-.75,.94-1.8,1.69-3.16,2.25-1.36,.56-2.93,.84-4.7,.84-2.1,0-3.88-.36-5.34-1.07s-2.5-1.64-3.12-2.77c-.62-1.13-.93-2.65-.93-4.55l.02-2.42v-7.35c0-1.88-.05-3.09-.16-3.64-.11-.55-.34-.92-.7-1.13-.36-.21-1.13-.31-2.32-.31h-.54v-.8h10.78v.8h-.47c-1.16,0-1.92,.1-2.28,.29-.36,.19-.6,.55-.73,1.07-.12,.52-.18,1.77-.18,3.73v7.44c0,2.58,.12,4.41,.36,5.49,.24,1.08,.91,2.02,2.01,2.83,1.1,.81,2.57,1.21,4.41,1.21,1.44,0,2.75-.27,3.93-.81,1.18-.54,2.05-1.21,2.63-2.02,.57-.81,.92-1.64,1.05-2.49s.19-2.2,.19-4.03V11.94c0-1.34-.07-2.27-.23-2.8-.15-.53-.48-.96-.97-1.27-.5-.31-1.29-.5-2.37-.57v-.8Z"/><path class="cls-1" d="M209.1,22.75h.84l-.51,7.35h-19.56v-.8h.49c1.17,0,1.93-.16,2.27-.47,.34-.31,.56-.71,.65-1.19s.14-1.71,.14-3.68V12.37c0-1.8-.05-2.98-.15-3.55-.1-.57-.33-.97-.68-1.19-.36-.23-1.1-.34-2.24-.34v-.8h16.88l.56,5.89h-.82c-.37-1.65-.83-2.82-1.37-3.51s-1.18-1.13-1.93-1.31-1.94-.27-3.59-.27h-3.27v9.91h2.51c1.15,0,1.95-.1,2.41-.3s.76-.5,.91-.9,.22-1.18,.22-2.34h.82v8.08h-.82c0-1.31-.11-2.19-.33-2.64-.22-.45-.54-.74-.97-.87s-1.14-.2-2.15-.2h-2.59v5.59c0,2.8,.18,4.44,.54,4.94,.36,.49,1.33,.74,2.91,.74h1.76c1.24,0,2.26-.16,3.06-.48,.8-.32,1.57-.98,2.29-1.97,.73-.99,1.3-2.36,1.71-4.1Z"/><path class="cls-1" d="M253.21,.32l.25,7.63h-1.06c-.21-1.67-.68-3.05-1.41-4.14-.73-1.09-1.49-1.77-2.29-2.04-.8-.27-2.14-.41-4.04-.41h-5.98V14.33h2.87c1.85,0,3.08-.31,3.69-.94s.92-1.88,.92-3.76h1.13v10.79h-1.13c0-1.31-.13-2.34-.4-3.1-.26-.76-.65-1.28-1.17-1.56s-1.53-.42-3.03-.42h-2.87v7.6c0,2.41,.06,3.98,.18,4.73,.12,.74,.43,1.3,.91,1.66,.49,.36,1.43,.54,2.83,.54h1.04v1.04h-14.21v-1.04h.95c1.31,0,2.21-.17,2.72-.5,.51-.33,.83-.85,.97-1.55,.15-.7,.22-2.33,.22-4.88V7.94c0-2.44-.07-4.01-.22-4.72-.14-.71-.44-1.2-.9-1.47-.46-.27-1.46-.41-3.01-.41h-.54V.32h23.6Z"/><path class="cls-1" d="M278.81,23.96l-.17,6.95h-20.06v-.8h.7c1.01,0,1.71-.13,2.1-.38,.39-.26,.64-.65,.75-1.19s.16-1.8,.16-3.77V13.18c0-1.88-.05-3.09-.16-3.64-.11-.55-.34-.92-.7-1.13-.36-.21-1.13-.31-2.33-.31h-.52v-.8h11.34v.8h-1.04c-1.16,0-1.92,.1-2.28,.29-.36,.19-.6,.55-.72,1.07s-.18,1.77-.18,3.73v12.37c0,1.71,.05,2.77,.14,3.2s.34,.76,.76,1,1.3,.36,2.66,.36h1.79c1.45,0,2.53-.13,3.23-.38,.7-.26,1.37-.81,2-1.67,.63-.86,1.21-2.22,1.73-4.09h.82Z"/><path class="cls-1" d="M296.68,22.2h-8.97l-.61,1.5c-.9,2.17-1.36,3.59-1.36,4.25,0,.71,.24,1.25,.73,1.61,.48,.37,1.1,.55,1.85,.55v.8h-7.02v-.8c1.04-.16,1.82-.53,2.33-1.11,.51-.57,1.13-1.79,1.85-3.63,.06-.17,.33-.85,.84-2.02l6.86-16.39h.68l7.89,18.76,1.08,2.47c.25,.56,.57,1,.98,1.32s1.03,.52,1.86,.6v.8h-9.28v-.8c1.14,0,1.91-.08,2.31-.25,.4-.17,.6-.5,.6-1,0-.26-.27-1.02-.8-2.28l-1.81-4.37Zm-.3-.78l-4.18-10.07-4.16,10.07h8.34Z"/><path class="cls-1" d="M306.68,12.97h-.8l.12-5.68h22.92l.12,5.68h-.75c-.27-1.56-.63-2.68-1.1-3.37-.47-.69-.96-1.12-1.5-1.27-.54-.16-1.45-.23-2.74-.23h-3.8V24.77c0,1.84,.05,3.06,.13,3.64,.09,.58,.32,1.01,.7,1.29,.38,.28,1.11,.42,2.16,.42h1.15v.8h-11.77v-.8h1.22c1.01,0,1.71-.13,2.1-.38,.39-.26,.64-.65,.75-1.19s.17-1.8,.17-3.77V8.1h-3.5c-1.52,0-2.54,.07-3.07,.22-.52,.15-1.01,.58-1.47,1.32-.46,.73-.81,1.85-1.05,3.34Z"/><path class="cls-1" d="M334.09,30.67v-7.59h.87c.99,4.95,3.33,7.42,7.02,7.42,1.66,0,2.95-.47,3.86-1.42,.91-.95,1.37-2,1.37-3.18s-.4-2.18-1.2-2.98c-.8-.79-2.26-1.64-4.39-2.54-1.89-.81-3.32-1.52-4.29-2.13-.96-.61-1.71-1.4-2.25-2.38s-.81-2.02-.81-3.12c0-1.68,.58-3.09,1.75-4.21,1.17-1.12,2.64-1.68,4.43-1.68,1,0,1.94,.16,2.82,.49s1.79,1,2.72,2.02c.53-.64,.84-1.33,.9-2.07h.77v6.18h-.77c-.44-1.8-1.22-3.21-2.34-4.25-1.12-1.03-2.42-1.55-3.89-1.55s-2.43,.38-3.09,1.14c-.66,.76-.98,1.59-.98,2.5,0,1.09,.41,2.02,1.24,2.77,.81,.77,2.28,1.63,4.4,2.58,2.03,.9,3.51,1.63,4.43,2.19,.92,.55,1.66,1.31,2.22,2.29,.56,.98,.84,2.1,.84,3.38,0,2.02-.67,3.66-2.02,4.93-1.35,1.27-3.15,1.9-5.4,1.9-2.59,0-4.75-.99-6.48-2.98-.38,.55-.67,1.31-.85,2.3h-.87Z"/></g></g></svg>