<?xml version="1.0" encoding="UTF-8"?><svg id="Layer_1" xmlns="http://www.w3.org/2000/svg" viewBox="0 0 252.9 252.9"><path d="m126.45,22.79c33.76,0,37.76.13,51.1.74,12.33.56,19.02,2.62,23.48,4.35,5.49,2.03,10.46,5.26,14.54,9.46,4.2,4.08,7.43,9.05,9.46,14.54,1.73,4.46,3.79,11.15,4.35,23.48.61,13.33.74,17.33.74,51.1s-.13,37.76-.74,51.1c-.56,12.33-2.62,19.02-4.35,23.48-4.25,11.03-12.97,19.74-24,24-4.46,1.73-11.15,3.79-23.48,4.35-13.33.61-17.33.74-51.1.74s-37.77-.13-51.1-.74c-12.33-.56-19.02-2.62-23.48-4.35-5.49-2.03-10.46-5.26-14.54-9.46-4.2-4.08-7.43-9.05-9.46-14.54-1.73-4.46-3.79-11.15-4.35-23.48-.61-13.33-.74-17.33-.74-51.1s.13-37.76.73-51.1c.56-12.33,2.62-19.02,4.35-23.48,2.03-5.49,5.26-10.46,9.46-14.54,4.08-4.2,9.05-7.43,14.54-9.46,4.46-1.73,11.15-3.79,23.48-4.35,13.33-.61,17.33-.74,51.1-.74m0-22.79c-34.34,0-38.65.15-52.13.76-13.46.62-22.65,2.75-30.69,5.88-8.44,3.18-16.08,8.15-22.4,14.58-6.43,6.32-11.41,13.96-14.59,22.4-3.12,8.04-5.26,17.23-5.87,30.69-.62,13.49-.76,17.8-.76,52.14s.15,38.65.76,52.13c.62,13.46,2.75,22.65,5.88,30.69,3.18,8.44,8.15,16.08,14.58,22.4,6.32,6.43,13.96,11.41,22.4,14.58,8.04,3.12,17.23,5.26,30.69,5.88,13.49.62,17.79.76,52.13.76s38.65-.15,52.13-.76c13.46-.62,22.65-2.75,30.69-5.88,16.98-6.57,30.41-20,36.98-36.98,3.12-8.04,5.26-17.23,5.88-30.69.62-13.49.76-17.79.76-52.13s-.15-38.65-.76-52.13c-.62-13.46-2.75-22.65-5.88-30.69-3.18-8.44-8.15-16.08-14.58-22.4-6.32-6.43-13.96-11.41-22.4-14.59-8.04-3.12-17.23-5.26-30.69-5.87-13.49-.62-17.79-.77-52.13-.77h0Z"/><path d="m126.45,61.52c-35.86,0-64.93,29.07-64.93,64.93s29.07,64.93,64.93,64.93,64.93-29.07,64.93-64.93h0c0-35.86-29.07-64.93-64.93-64.93Zm0,107.08c-23.28,0-42.15-18.87-42.15-42.15s18.87-42.15,42.15-42.15,42.15,18.87,42.15,42.15-18.87,42.15-42.15,42.15Z"/><circle cx="193.95" cy="58.95" r="15.17"/></svg>